<?xml version="1.0" standalone="no"?>
<!DOCTYPE svg PUBLIC "-//W3C//DTD SVG 20010904//EN"
 "http://www.w3.org/TR/2001/REC-SVG-20010904/DTD/svg10.dtd">
<svg version="1.0" xmlns="http://www.w3.org/2000/svg"
 width="429.000000pt" height="429.000000pt" viewBox="0 0 429.000000 429.000000"
 preserveAspectRatio="xMidYMid meet">
<metadata>
Created by potrace 1.14, written by Peter Selinger 2001-2017
</metadata>
<g transform="translate(0.000000,429.000000) scale(0.100000,-0.100000)"
fill="#000000" stroke="none">
<path d="M1244 2858 c-2 -3 -13 -4 -24 -1 -11 3 -20 1 -21 -3 0 -5 -1 -70 -2
-144 l-2 -135 -42 -10 c-23 -6 -45 -13 -48 -17 -4 -4 -13 -4 -21 -1 -8 3 -14
-1 -14 -8 0 -7 -3 -10 -6 -7 -3 3 -21 2 -41 -4 -35 -10 -56 -15 -102 -24 -14
-3 -28 -7 -33 -10 -4 -3 -16 -7 -25 -9 -118 -28 -152 -41 -143 -54 7 -12 13
-13 36 -3 14 7 29 11 32 8 2 -3 20 1 39 9 19 8 37 14 41 14 4 -1 10 0 15 1 4
1 12 4 17 5 6 1 11 3 13 4 1 2 13 5 27 8 39 7 55 11 55 13 0 1 8 3 18 6 9 2
25 6 35 8 9 3 17 5 17 6 0 1 8 3 18 6 9 2 25 6 35 8 9 3 18 5 20 6 3 3 11 5
53 14 l36 8 0 111 c1 198 -3 179 46 175 l42 -3 1 -114 c2 -119 9 -140 46 -120
10 5 18 8 18 5 0 -2 21 3 48 11 152 47 206 54 287 39 17 -3 50 -8 75 -11 25
-3 54 -8 66 -10 11 -3 43 -7 70 -10 27 -3 60 -8 74 -11 34 -6 121 -17 143 -18
9 0 17 -3 17 -6 0 -3 17 -6 38 -6 20 -1 53 -4 72 -7 76 -12 136 -20 153 -21 9
0 17 -3 17 -6 0 -3 12 -5 28 -6 32 -1 117 -11 227 -28 22 -3 58 -8 80 -11 22
-2 51 -6 65 -9 14 -3 48 -8 75 -11 28 -3 66 -8 85 -10 19 -3 46 -7 60 -10 14
-3 43 -8 65 -10 22 -2 56 -7 75 -10 19 -4 49 -8 65 -9 17 -2 46 -6 65 -9 36
-7 75 -12 158 -23 83 -11 87 -11 87 -13 0 -1 18 -4 40 -6 40 -4 80 -9 153 -21
20 -3 48 -7 62 -8 14 -2 41 -5 60 -9 79 -15 109 -15 114 -1 3 8 2 14 -2 15 -4
0 -16 2 -27 5 -11 2 -40 7 -65 9 -25 3 -56 8 -70 10 -14 3 -43 7 -65 10 -22 3
-51 7 -64 10 -13 2 -49 7 -80 11 -31 3 -59 8 -62 10 -3 1 -37 6 -75 9 -38 4
-82 10 -99 14 -16 4 -42 7 -57 7 -16 -1 -28 1 -28 4 0 3 -17 6 -37 7 -21 2
-63 7 -93 13 -30 6 -80 13 -110 16 -62 7 -95 12 -95 14 0 1 -54 8 -102 11 -18
2 -33 6 -33 9 0 3 -19 5 -43 4 -23 0 -46 2 -52 5 -5 3 -19 6 -30 7 -36 4 -109
14 -145 19 -19 3 -51 8 -70 10 -19 2 -44 6 -55 8 -11 3 -49 8 -85 12 -66 8
-95 12 -95 15 0 1 -18 3 -40 5 -22 2 -53 6 -70 9 -16 3 -52 8 -80 11 -52 6
-90 12 -90 15 0 1 -20 3 -43 5 -24 2 -54 6 -66 9 -12 3 -48 8 -80 12 -33 3
-69 8 -80 11 -61 14 -107 10 -210 -18 -158 -44 -156 -44 -157 -14 -2 93 -1
147 3 151 3 2 3 15 1 28 -4 21 -11 25 -55 28 -27 1 -52 0 -54 -4z"/>
<path d="M1454 2551 c-4 -5 44 -72 60 -83 12 -8 15 -228 3 -253 -6 -11 -23
-35 -38 -54 -15 -19 -26 -37 -24 -40 5 -9 243 -6 252 2 3 4 0 13 -8 20 -41 35
-63 70 -64 102 -1 19 1 35 4 36 79 10 91 0 115 -94 8 -31 17 -61 20 -65 2 -4
29 -7 58 -6 101 4 95 1 65 32 -15 15 -27 33 -27 39 0 21 -41 106 -56 118 -14
10 -11 15 21 36 67 45 65 139 -4 189 -17 12 -31 19 -31 16 0 -3 -10 -2 -22 3
-13 5 -32 5 -43 1 -11 -4 -24 -5 -28 -3 -10 6 -247 9 -253 4z"/>
<path d="M634 2449 c-12 -20 -49 -27 -74 -14 -24 13 -74 12 -130 0 -34 -8
-136 -93 -124 -104 3 -3 9 1 14 9 6 8 10 11 10 7 0 -5 19 6 42 25 23 18 39 28
35 21 -5 -7 0 -9 13 -6 16 4 23 -3 37 -33 15 -35 25 -154 13 -154 -3 0 -5 -75
-5 -168 l0 -167 46 -3 46 -3 -5 73 c-2 40 -5 153 -6 251 -1 136 2 180 12 186
15 9 49 8 75 -4 37 -16 47 5 38 76 -2 12 -30 18 -37 8z"/>
<path d="M1035 2370 c-13 -4 -12 -9 5 -23 20 -17 20 -17 -7 -68 -41 -76 -48
-88 -70 -112 -40 -44 -38 -45 47 -45 49 0 83 5 87 12 3 6 3 8 -1 4 -10 -8 -46
22 -46 39 0 7 3 14 8 14 35 6 52 5 52 -5 0 -7 3 -7 8 -1 10 14 32 17 32 5 0
-5 3 -9 8 -9 25 4 23 -5 -7 -30 l-35 -28 120 -2 119 -1 -41 38 c-23 20 -52 57
-65 81 -13 24 -29 53 -36 65 -10 17 -9 24 7 41 11 12 20 23 20 26 0 6 -188 5
-205 -1z"/>
<path d="M2100 2372 c0 -5 -13 -8 -30 -6 -29 3 -30 2 -31 -39 0 -23 -2 -50 -4
-61 -3 -14 6 -10 33 17 52 50 93 54 91 10 -1 -16 -1 -32 1 -38 10 -38 -3 -77
-34 -107 l-34 -33 111 1 c62 1 116 3 122 3 5 1 -2 8 -15 17 -43 29 -50 45 -50
116 0 47 4 68 13 69 28 3 43 -4 72 -32 17 -16 34 -29 37 -29 3 0 4 15 2 33 -1
17 -3 41 -3 53 -1 19 -7 20 -68 19 -38 0 -74 3 -80 8 -7 5 -13 6 -13 1 0 -11
-91 -11 -108 0 -7 4 -12 3 -12 -2z"/>
<path d="M3155 2274 c-5 -1 -22 -5 -37 -8 -45 -10 -33 -28 15 -22 41 5 78 -6
65 -20 -4 -3 -27 -7 -51 -8 -56 -2 -81 -20 -65 -46 7 -10 15 -17 19 -14 4 2
10 0 14 -6 4 -6 11 -8 16 -4 6 3 44 6 85 5 60 -1 74 2 74 14 0 8 -4 15 -10 15
-5 0 -10 12 -10 28 0 40 -12 52 -56 55 -21 1 -41 5 -44 8 -3 3 -9 5 -15 3z"/>
<path d="M2586 2263 c-10 -10 -7 -35 3 -29 5 4 11 0 14 -6 5 -18 -3 -48 -14
-48 -5 0 -9 -7 -9 -15 0 -11 13 -15 54 -15 56 0 82 15 53 31 -18 11 -16 44 4
44 8 0 17 5 21 10 8 11 9 9 13 -40 2 -16 3 -33 4 -36 2 -14 62 -15 79 -2 16
12 16 14 0 26 -11 9 -13 18 -7 28 6 12 2 22 -15 38 -18 17 -30 20 -57 15 -19
-3 -38 -6 -44 -5 -54 7 -94 9 -99 4z"/>
<path d="M2827 2258 c-30 -11 -28 -28 4 -28 16 0 19 -7 19 -41 0 -36 2 -41 20
-36 11 3 20 2 20 -2 0 -4 10 -7 23 -6 15 1 21 8 20 21 -5 49 -12 77 -22 87
-14 14 -51 16 -84 5z"/>
<path d="M3413 2257 c-3 -5 -1 -12 5 -16 16 -10 19 -45 3 -57 -24 -19 -2 -34
49 -34 49 0 74 15 49 30 -17 11 -20 38 -6 47 18 11 38 12 31 2 -3 -5 -1 -9 4
-9 5 0 8 -16 7 -35 -1 -35 -1 -35 41 -35 40 0 72 19 46 28 -7 2 -12 17 -12 33
0 42 -39 66 -85 52 -19 -6 -37 -8 -40 -4 -10 9 -86 8 -92 -2z"/>
<path d="M300 2176 c0 -47 0 -89 1 -93 0 -3 -7 -10 -16 -15 -12 -7 -13 -13 -5
-22 7 -10 7 -16 -3 -24 -9 -8 -13 -33 -12 -81 2 -71 10 -96 26 -86 5 4 9 1 9
-6 0 -8 4 -8 15 1 8 7 15 9 15 5 0 -4 6 -3 13 3 16 13 15 139 -1 170 -7 12 -9
22 -4 22 5 0 9 7 9 14 0 8 -5 14 -11 13 -7 -1 -11 29 -11 87 0 62 -4 91 -13
94 -9 3 -12 -18 -12 -82z"/>
<path d="M676 2203 c-3 -4 -1 -12 5 -20 6 -7 7 -13 2 -13 -5 0 -8 -22 -8 -50
1 -41 5 -53 29 -73 27 -23 28 -27 22 -91 -7 -81 -1 -100 25 -85 17 9 19 19 16
80 -3 64 -1 71 23 92 23 21 26 30 25 93 l0 69 -67 2 c-36 1 -69 -1 -72 -4z"/>
<path d="M1144 2022 c-45 -4 -68 -34 -68 -87 0 -52 21 -74 70 -75 39 0 64 27
71 78 7 51 -26 89 -73 84z"/>
<path d="M1315 2024 c-12 -5 -7 -114 5 -114 4 0 6 17 3 37 -6 43 3 37 55 -39
18 -27 37 -48 42 -48 6 0 9 25 7 55 -1 30 1 56 4 57 4 2 1 8 -6 15 -11 10 -13
4 -10 -33 1 -24 -1 -44 -5 -44 -4 0 -25 26 -46 59 -22 32 -43 56 -49 55z"/>
<path d="M896 1995 c-20 -22 -24 -42 -17 -86 4 -24 42 -49 74 -49 46 0 56 15
11 16 -43 1 -53 11 -60 56 -5 26 -1 41 12 57 22 25 59 28 72 5 6 -11 11 -13
16 -5 12 20 -4 31 -45 31 -30 0 -46 -6 -63 -25z"/>
<path d="M1401 2017 c2 -1 12 -9 22 -16 14 -12 17 -11 17 3 0 10 -8 16 -22 16
-12 0 -19 -1 -17 -3z"/>
<path d="M1517 2001 c-3 -14 -1 -18 9 -14 8 3 14 11 14 19 0 21 -17 17 -23 -5z"/>
<path d="M1550 2010 c0 -4 3 -10 7 -14 9 -9 11 -85 2 -117 -6 -22 -4 -26 9
-24 13 1 17 14 19 56 3 113 0 104 22 84 19 -16 20 -16 18 2 -1 16 -9 19 -39
19 -21 0 -38 -3 -38 -6z"/>
<path d="M1703 2007 c-4 -6 -1 -7 6 -2 10 6 12 -10 9 -71 -3 -74 -2 -77 19
-79 18 -1 20 1 11 12 -6 7 -8 16 -5 20 4 3 2 12 -4 19 -7 8 -7 14 0 18 6 4 21
-9 33 -28 13 -20 29 -36 36 -36 17 0 15 6 -9 40 l-22 28 21 27 c21 26 20 54
-2 56 -6 0 -28 2 -49 4 -20 1 -40 -2 -44 -8z"/>
<path d="M1963 2008 c-11 -13 -25 -65 -21 -71 2 -2 -5 -11 -14 -21 -10 -10
-18 -26 -18 -36 0 -10 -6 -20 -12 -23 -7 -2 -1 -4 14 -3 21 1 24 4 17 18 -10
19 2 30 38 34 22 3 27 -5 26 -42 0 -6 10 -9 23 -6 21 4 22 6 10 26 -8 11 -19
39 -26 61 -7 22 -16 45 -21 51 -5 6 -6 14 -2 17 3 4 4 7 1 7 -3 0 -10 -6 -15
-12z"/>
<path d="M2159 2013 c-43 -10 -61 -103 -26 -137 26 -26 117 -30 101 -4 -3 5
-12 4 -21 -3 -11 -10 -16 -10 -22 0 -5 7 -11 12 -15 12 -21 -3 -26 2 -34 32
-9 31 7 86 26 88 4 0 15 2 25 4 9 2 17 0 17 -5 0 -15 28 -19 34 -4 3 9 1 12
-4 9 -6 -3 -10 -2 -10 4 0 9 -37 11 -71 4z"/>
<path d="M2311 2011 c-10 -6 -10 -10 -1 -16 13 -8 24 -1 19 14 -3 6 -10 7 -18
2z"/>
<path d="M2340 2009 c0 -4 3 -10 8 -12 8 -5 7 -109 -1 -129 -3 -8 4 -13 18
-13 13 0 21 4 18 8 -3 5 -6 36 -7 69 -2 44 1 61 12 65 8 3 18 0 22 -7 4 -6 10
-8 13 -3 3 5 3 13 -1 18 -8 12 -82 15 -82 4z"/>
<path d="M2508 1937 c3 -64 1 -78 -10 -71 -7 4 -10 3 -5 -1 11 -12 57 -13 49
0 -10 16 -12 104 -3 128 8 20 6 23 -13 23 -20 0 -21 -4 -18 -79z"/>
<path d="M2632 2003 c2 -10 7 -21 12 -25 6 -4 5 -12 -3 -21 -8 -11 -9 -17 -1
-22 8 -5 8 -11 -1 -21 -9 -11 -8 -14 4 -14 10 0 14 9 12 30 -1 17 1 33 6 36 5
3 9 -2 9 -10 0 -9 3 -16 8 -16 4 0 20 -20 35 -44 19 -30 33 -43 43 -39 11 4
12 9 3 19 -6 7 -7 19 -3 26 5 7 9 31 9 54 1 22 4 45 7 50 4 5 -1 10 -10 10
-13 0 -17 -9 -17 -38 0 -21 4 -38 9 -38 4 0 3 -6 -3 -13 -6 -8 -8 -17 -4 -20
3 -4 1 -7 -5 -7 -7 0 -12 7 -12 15 0 8 -4 15 -8 15 -4 0 -16 13 -25 30 -33 55
-71 80 -65 43z"/>
<path d="M2876 1997 c-22 -20 -27 -31 -25 -65 3 -44 18 -65 58 -77 22 -7 22
-5 -7 24 -20 21 -29 40 -27 58 2 37 15 64 26 57 5 -3 9 2 9 10 0 21 -2 20 -34
-7z"/>
<path d="M2920 2012 c0 -4 10 -9 22 -9 13 -1 24 -7 26 -13 2 -5 8 -10 13 -10
6 0 6 7 0 18 -9 17 -61 29 -61 14z"/>
<path d="M3180 2004 c12 -13 15 -91 6 -121 -6 -18 -3 -23 11 -24 10 0 32 -2
50 -3 19 -1 34 3 37 11 3 7 -1 13 -9 13 -8 0 -15 -4 -15 -8 0 -9 -39 -11 -41
-2 -8 29 -4 130 4 130 21 0 -4 14 -27 15 -17 0 -22 -3 -16 -11z"/>
<path d="M3346 2004 c-9 -24 -8 -25 13 -12 11 7 17 16 15 20 -8 13 -21 9 -28
-8z"/>
<path d="M3391 1949 c0 -39 -3 -73 -5 -78 -3 -4 4 -12 14 -19 14 -9 21 -9 26
0 4 6 3 8 -3 5 -7 -4 -10 19 -10 68 1 62 4 74 19 78 11 3 18 0 18 -10 0 -8 5
-11 11 -7 17 10 -6 27 -40 30 l-29 2 -1 -69z"/>
<path d="M3534 2008 c-3 -4 -1 -8 4 -8 9 0 9 -121 -1 -136 -3 -6 13 -9 39 -8
45 2 100 36 89 55 -3 4 -1 10 4 14 13 8 -8 67 -28 80 -20 12 -100 14 -107 3z"/>
<path d="M2960 1910 c0 -5 1 -11 2 -12 1 -2 -4 -14 -11 -27 -12 -21 -11 -23 4
-18 9 4 19 7 21 7 2 0 4 14 4 30 0 17 -4 30 -10 30 -5 0 -10 -4 -10 -10z"/>
<path d="M2636 1874 c-8 -21 -8 -21 8 -21 8 0 14 9 13 19 -2 22 -13 24 -21 2z"/>
<path d="M1300 1870 c0 -5 7 -10 15 -10 8 0 15 5 15 10 0 6 -7 10 -15 10 -8 0
-15 -4 -15 -10z"/>
<path d="M3750 1870 c0 -5 7 -10 15 -10 8 0 15 5 15 10 0 6 -7 10 -15 10 -8 0
-15 -4 -15 -10z"/>
<path d="M284 1732 c-6 -4 -8 -16 -4 -26 3 -11 3 -37 0 -58 -4 -21 -4 -38 1
-38 5 0 4 -11 -1 -25 -6 -17 -6 -25 1 -25 6 0 8 -4 4 -9 -3 -5 0 -13 6 -17 9
-5 3580 -10 3703 -5 15 1 17 8 14 46 -2 25 1 47 7 49 7 3 7 5 0 5 -6 1 -9 24
-7 56 l4 55 -1859 0 c-1022 0 -1863 -4 -1869 -8z"/>
</g>
</svg>
